Girls Next Door 1979
====================

A relative film rarity, not very well distributed beyond the Hollywoodland
independent filmmaker corridor.

A fairly hilarious low budget film, something of a pioneering effort in the
*teens running wild*, enabled by dysfunctional parents genre.

If you don't laugh at least once, check for a heartbeat.

Includes Kirsten Baker, once a hot female property of the industry.

Rated R (USA) for nudity, language and sexual situations.

Good quality XviD AVI (sourced from VHS), with MD5 file.

----------

Complete name                    : GirlsNextDoor-KirstenBaker-1979.avi
Format                           : AVI
Format/Info                      : Audio Video Interleave
File size                        : 1.03 GiB
Duration                         : 1h 29mn
Overall bit rate                 : 1 639 Kbps

Format                           : MPEG-4 Visual
Codec ID                         : XVID
Bit rate                         : 1 499 Kbps
Width                            : 720 pixels
Height                           : 480 pixels
Display aspect ratio             : 1.500
Frame rate                       : 29.970 fps
Standard                         : NTSC
Scan type                        : Progressive
Stream size                      : 964 MiB (91%)

Format                           : MPEG Audio
Format version                   : Version 1
Format profile                   : Layer 3
Mode                             : Joint stereo / MS Stereo
Codec ID/Hint                    : MP3
Duration                         : 1h 29mn
Bit rate mode                    : Constant
Bit rate                         : 128 Kbps
Channel(s)                       : 2 channels
Sampling rate                    : 48.0 KHz
Stream size                      : 82.3 MiB (8%)

----------

Please seed as much as you can and remember that others depend upon you,
just as you depend upon them.

Distribute elsewhere, as much as you please.

Original seed will end at 2x.

----

GirlsNextDoor-KirstenBaker-1979-avi.md5 (71.0B)
GirlsNextDoor-KirstenBaker-1979.avi (1.0GB)
OpenTrackers.nfo (637.0B)
Readme.nfo (2.0KB)

